<svg id="图层_1" data-name="图层 1" xmlns="http://www.w3.org/2000/svg" xmlns:xlink="http://www.w3.org/1999/xlink" viewBox="0 0 135.26 64.19"><defs><style>.cls-1{clip-path:url(#clip-path);}</style><clipPath id="clip-path" transform="translate(-1 -24.81)"><path d="M54.2,87.49,53.75,89H79.27a38.66,38.66,0,0,0,9.88-1.51Zm2.15-7.17-.68,2.27H98.74l.55-.44q1.06-.87,2.1-1.83Zm31.17-7.16q-2.68,1.36-8,1.36H75.34l.4-1.36H58.49l-.81,2.71h47.77c.68-.86,1.34-1.77,2-2.71Zm-27-6.72-1,3.17H76.81l.94-3.17Zm33.15,0c-.37.69-.73,1.31-1.09,1.85s-.63.91-1,1.32h17.94c.52-1,1-2,1.52-3.17ZM62.51,59.72l-1.08,3.62H78.68l1.08-3.62Zm33.86,0c-.44,1.32-.88,2.53-1.32,3.62h17.28c.44-1.14.86-2.35,1.28-3.62ZM64.52,53,63.3,57.08H80.56L81.78,53Zm33.77,0c-.29,1.26-.65,2.62-1.09,4.08h17.25l.12-.4c.37-1.24.7-2.47,1-3.68ZM66.53,46.29l-1.35,4.52H82.43l1.36-4.52Zm32.62,0a23.75,23.75,0,0,1-.41,4.52H116c.31-1.54.54-3.05.71-4.52ZM68.61,39.34,67,44.77H84.24l1.62-5.43Zm23,0q5.34.4,6.87,3.73a6.66,6.66,0,0,1,.5,1.7h17.87c0-.17,0-.35,0-.52a29.52,29.52,0,0,0-.07-4.91ZM70.82,32l-1.89,6.34h47.8A20.21,20.21,0,0,0,115.61,34a14.28,14.28,0,0,0-1-2ZM72.9,25,71,31.42h43.36A13,13,0,0,0,110,27.17,18.16,18.16,0,0,0,102.5,25"/></clipPath></defs><path d="M54.2,87.49,53.75,89H79.27a38.66,38.66,0,0,0,9.88-1.51Zm2.15-7.17-.68,2.27H98.74l.55-.44q1.06-.87,2.1-1.83Zm31.17-7.16q-2.68,1.36-8,1.36H75.34l.4-1.36H58.49l-.81,2.71h47.77c.68-.86,1.34-1.77,2-2.71Zm-27-6.72-1,3.17H76.81l.94-3.17Zm33.15,0c-.37.69-.73,1.31-1.09,1.85s-.63.91-1,1.32h17.94c.52-1,1-2,1.52-3.17ZM62.51,59.72l-1.08,3.62H78.68l1.08-3.62Zm33.86,0c-.44,1.32-.88,2.53-1.32,3.62h17.28c.44-1.14.86-2.35,1.28-3.62ZM64.52,53,63.3,57.08H80.56L81.78,53Zm33.77,0c-.29,1.26-.65,2.62-1.09,4.08h17.25l.12-.4c.37-1.24.7-2.47,1-3.68ZM66.53,46.29l-1.35,4.52H82.43l1.36-4.52Zm32.62,0a23.75,23.75,0,0,1-.41,4.52H116c.31-1.54.54-3.05.71-4.52ZM68.61,39.34,67,44.77H84.24l1.62-5.43Zm23,0q5.34.4,6.87,3.73a6.66,6.66,0,0,1,.5,1.7h17.87c0-.17,0-.35,0-.52a29.52,29.52,0,0,0-.07-4.91ZM70.82,32l-1.89,6.34h47.8A20.21,20.21,0,0,0,115.61,34a14.28,14.28,0,0,0-1-2ZM72.9,25,71,31.42h43.36A13,13,0,0,0,110,27.17,18.16,18.16,0,0,0,102.5,25" transform="translate(-1 -24.81)"/><g class="cls-1"><polygon points="135.26 0 116.04 64.19 33.53 64.19 52.75 0 71.96 0 135.26 0"/></g><polygon points="5.2 44.55 4.55 46.72 22.5 47.41 26.06 44.26 5.2 44.55"/><polygon points="14.39 13.84 13.77 15.91 30.77 16.56 31.65 13.59 14.39 13.84"/><polygon points="0.64 59.79 0 61.92 17 62.53 17.9 59.54 0.64 59.79"/><polygon points="6.75 39.37 5.98 41.94 27.75 42.76 31.98 39.02 6.75 39.37"/><polygon points="2.19 54.59 1.45 57.07 18.46 57.68 19.45 54.35 2.19 54.59"/><polygon points="34.73 47.88 54.62 48.64 34.88 48.91 35.49 53.08 55.86 53.83 53.54 43.87 34.18 44.14 34.73 47.88"/><polygon points="30.21 18.41 12.95 18.66 12.23 21.05 29.22 21.72 30.21 18.41"/><polygon points="71.54 2.71 50.74 3.01 46.62 6.95 67.85 7.82 76.52 0.21 53.66 0.21 51.9 1.9 71.54 2.71"/><polygon points="34.75 3.23 17.49 3.48 16.82 5.74 33.8 6.43 34.75 3.23"/><polygon points="32.23 11.67 33.2 8.42 15.94 8.66 15.25 10.98 32.23 11.67"/><polygon points="3.77 49.33 3 51.89 20 52.51 21.03 49.1 3.77 49.33"/><polygon points="45.27 8.25 41.32 12.03 62.09 12.87 67.72 7.93 45.27 8.25"/><polygon points="34.73 18.35 31.13 21.8 51.02 22.58 56.2 18.04 34.73 18.35"/><polygon points="35.36 1.22 35.66 0.21 18.47 0.21 18.38 0.52 35.36 1.22"/><polygon points="35.64 54.12 36.26 58.33 55.3 59.02 36.4 59.28 36.98 63.25 53.32 63.83 37.09 64.06 37.12 64.19 58.28 64.19 55.87 53.83 35.64 54.12"/><polygon points="39.81 13.47 36.37 16.78 56.75 17.56 61.75 13.16 39.81 13.47"/><polygon points="34.01 42.99 53.51 43.72 52.34 38.73 33.43 38.99 34.01 42.99"/><polygon points="8.3 34.19 7.54 36.72 52.27 38.41 51.15 33.59 8.3 34.19"/><polygon points="50.23 23.28 29.27 23.57 28.42 24.39 28.66 23.58 11.4 23.83 10.67 26.27 49.8 27.79 49 24.36 50.23 23.28"/><polygon points="9.85 29.01 9.11 31.5 51.03 33.1 49.95 28.44 9.85 29.01"/><path d="M72.54,25h17.8L75.9,73.24h31.55C102.63,81.24,90.83,89,84.22,89H53.39Z" transform="translate(-1 -24.81)"/></svg>